<?xml version="1.0" encoding="utf-8"?>
<!-- Generator: Adobe Illustrator 16.0.0, SVG Export Plug-In . SVG Version: 6.00 Build 0)  -->
<!DOCTYPE svg PUBLIC "-//W3C//DTD SVG 1.1//EN" "http://www.w3.org/Graphics/SVG/1.1/DTD/svg11.dtd">
<svg version="1.1" xmlns="http://www.w3.org/2000/svg" xmlns:xlink="http://www.w3.org/1999/xlink" x="0px" y="0px" width="64px"
	 height="64px" viewBox="0 0 64 64" enable-background="new 0 0 64 64" xml:space="preserve">
<g id="g" display="none">
</g>
<g id="_x35_0_election_x2C__team_x2C__agitation_x2C__sign_x2C__vote_x2C__politics_x2C__voting">
</g>
<g id="_x34_9_poster_x2C__politician_x2C__candidate_x2C__leaflet_x2C__vote_x2C__politics_x2C__voting">
</g>
<g id="_x34_8_flag_x2C__check_x2C__voter_x2C__vote_x2C__politics_x2C__voting">
</g>
<g id="_x34_7_badge_x2C__check_x2C__voter_x2C__vote_x2C__politics_x2C__voting">
</g>
<g id="_x34_6_website_x2C__politician_x2C__agitation_x2C__election_x2C__vote_x2C__politics_x2C__voting">
</g>
<g id="_x34_5_cap_x2C__agitation_x2C__check_x2C__voter_x2C__vote_x2C__politics_x2C__voting">
</g>
<g id="_x34_4_election_x2C__team_x2C__agitation_x2C__sign_x2C__vote_x2C__politics_x2C__voting">
</g>
<g id="_x34_3_billboard_x2C__agitation_x2C__politician_x2C__vote_x2C__politics_x2C__voting">
</g>
<g id="_x34_2_politician_x2C__candidate_x2C__check_x2C__speech_x2C__vote_x2C__politics_x2C__voting">
</g>
<g id="_x34_1_calendar_x2C__election_x2C__day_x2C__check_x2C__vote_x2C__politics_x2C__voting">
</g>
<g id="_x34_0_exchange_x2C__ballot_x2C__money_x2C__buying_x2C__vote_x2C__politics_x2C__voting">
</g>
<g id="_x33_9_ballot_x2C__check_x2C__voter_x2C__vote_x2C__politics_x2C__voting">
</g>
<g id="_x33_8_place_x2C__location_x2C__pin_x2C__map_x2C__vote_x2C__politics_x2C__voting">
</g>
<g id="_x33_7_house_x2C__placard_x2C__sign_x2C__voter_x2C__vote_x2C__politics_x2C__voting">
</g>
<g id="_x33_6_talk_x2C__voter_x2C__politician_x2C__candidate_x2C__vote_x2C__politics_x2C__voting">
</g>
<g id="_x33_5_chart_x2C__candidate_x2C__rating_x2C__race_x2C__vote_x2C__politics_x2C__voting">
</g>
<g id="_x33_4_politician_x2C__candidate_x2C__check_x2C__choice_x2C__vote_x2C__politics_x2C__voting">
</g>
<g id="_x33_3_magnifying_x2C__glass_x2C__search_x2C__politician_x2C__vote_x2C__politics_x2C__voting">
</g>
<g id="_x33_2_newspaper_x2C__news_x2C__politician_x2C__press_x2C__vote_x2C__politics_x2C__voting">
</g>
<g id="_x33_1_promise_x2C__politician_x2C__program_x2C__speech_x2C__vote_x2C__politics_x2C__voting">
</g>
<g id="_x33_0_place_x2C__location_x2C__pin_x2C__map_x2C__vote_x2C__politics_x2C__voting">
</g>
<g id="_x32_9_election_x2C__team_x2C__campaign_x2C__politician_x2C__vote_x2C__politics_x2C__voting">
</g>
<g id="_x32_8_politician_x2C__candidate_x2C__check_x2C__vote_x2C__politics_x2C__voting">
</g>
<g id="_x32_7_phone_x2C__ballot_x2C__check_x2C__vote_x2C__politics_x2C__voting">
</g>
<g id="_x32_6_flag_x2C__voter_x2C__hand_x2C__vote_x2C__politics_x2C__voting">
</g>
<g id="_x32_5_placard_x2C__slogan_x2C__hand_x2C__sign_x2C__vote_x2C__politics_x2C__voting">
</g>
<g id="_x32_4_pulpit_x2C__politician_x2C__voter_x2C__speech_x2C__vote_x2C__politics_x2C__voting">
</g>
<g id="_x32_3_intersection_x2C__way_x2C__choice_x2C__voter_x2C__vote_x2C__politics_x2C__voting">
</g>
<g id="_x32_2_mask_x2C__false_x2C__politician_x2C__promise_x2C__vote_x2C__politics_x2C__voting">
</g>
<g id="_x32_1_voter_x2C__ballot_x2C__think_x2C__head_x2C__vote_x2C__politics_x2C__voting">
</g>
<g id="_x32_0_scales_x2C__politician_x2C__voter_x2C__candidate_x2C__vote_x2C__politics_x2C__voting">
</g>
<g id="_x31_9_laptop_x2C__voter_x2C__check_x2C__computer_x2C__vote_x2C__politics_x2C__voting">
</g>
<g id="_x31_8_laptop_x2C__computer_x2C__online_x2C__ballot_x2C__vote_x2C__politics_x2C__voting">
</g>
<g id="_x31_7_tv_x2C__news_x2C__speech_x2C__politician_x2C__vote_x2C__politics_x2C__voting">
</g>
<g id="_x31_6_check_x2C__hand_x2C__voter_x2C__vote_x2C__politics_x2C__voting">
</g>
<g id="_x31_5_debate_x2C__politician_x2C__conflict_x2C__pulpit_x2C__vote_x2C__politics_x2C__voting">
</g>
<g id="_x31_4_voter_x2C__candidate_x2C__question_x2C__choice_x2C__vote_x2C__politics_x2C__voting">
</g>
<g id="_x31_3_politician_x2C__candidate_x2C__check_x2C__speech_x2C__vote_x2C__politics_x2C__voting">
</g>
<g id="_x31_2_politician_x2C__candidate_x2C__pulpit_x2C__speech_x2C__vote_x2C__politics_x2C__voting">
</g>
<g id="_x31_1_promotion_x2C__agitation_x2C__speaker_x2C__vote_x2C__politics_x2C__voting">
</g>
<g id="_x31_0_political_x2C__program_x2C__list_x2C__check_x2C__vote_x2C__politics_x2C__voting">
</g>
<g id="_x39__hand_x2C__voter_x2C__vote_x2C__ballot_x2C__politics_x2C__voting">
</g>
<g id="_x38__ballot_x2C__pen_x2C__check_x2C__vote_x2C__politics_x2C__voting">
	<g>
		<g>
			<g>
				<g>
					<path d="M25.781,33.021c-0.256,0-0.512-0.098-0.707-0.293l-0.707-0.707c-0.391-0.391-0.391-1.023,0-1.414s1.023-0.391,1.414,0
						l0.707,0.707c0.391,0.391,0.391,1.023,0,1.414C26.293,32.923,26.037,33.021,25.781,33.021z"/>
				</g>
				<g>
					<path d="M25.073,32.314c-0.436,0-0.836-0.287-0.961-0.727l-1.123-3.947c-0.151-0.531,0.157-1.084,0.688-1.235
						c0.527-0.151,1.084,0.157,1.235,0.688l1.123,3.947c0.151,0.531-0.157,1.084-0.688,1.235
						C25.257,32.302,25.164,32.314,25.073,32.314z"/>
				</g>
				<g>
					<path d="M25.075,32.314c-0.091,0-0.183-0.013-0.274-0.039l-3.951-1.121c-0.531-0.151-0.839-0.704-0.688-1.235
						c0.151-0.532,0.703-0.841,1.235-0.689l3.951,1.121c0.531,0.151,0.839,0.704,0.688,1.235
						C25.911,32.027,25.511,32.314,25.075,32.314z"/>
				</g>
				<g>
					<path d="M20.123,30.194c-0.256,0-0.512-0.098-0.707-0.293c-0.391-0.391-0.391-1.024,0-1.414l2.828-2.827
						c0.391-0.391,1.023-0.391,1.414,0s0.391,1.024,0,1.414l-2.828,2.827C20.635,30.096,20.379,30.194,20.123,30.194z"/>
				</g>
				<g>
					<path d="M10.398,20.471c-0.256,0-0.512-0.098-0.707-0.293c-0.391-0.39-0.391-1.023,0-1.414l2.828-2.829
						c0.391-0.391,1.023-0.391,1.414,0c0.391,0.39,0.391,1.023,0,1.414l-2.828,2.829C10.91,20.374,10.654,20.471,10.398,20.471z"/>
				</g>
				<g>
					<path d="M23.951,28.367c-0.256,0-0.512-0.098-0.707-0.293L3.912,8.743c-0.391-0.391-0.391-1.023,0-1.414s1.023-0.391,1.414,0
						L24.658,26.66c0.391,0.391,0.391,1.023,0,1.414C24.463,28.269,24.207,28.367,23.951,28.367z"/>
				</g>
				<g>
					<path d="M21.123,31.193c-0.256,0-0.512-0.098-0.707-0.293L1.084,11.572c-0.391-0.39-0.391-1.023,0-1.414s1.023-0.391,1.414,0
						L21.83,29.486c0.391,0.39,0.391,1.023,0,1.414C21.635,31.095,21.379,31.193,21.123,31.193z"/>
				</g>
				<g>
					<path d="M1.791,11.865c-0.256,0-0.512-0.098-0.707-0.293c-1.17-1.17-1.17-3.073,0-4.243c1.171-1.17,3.073-1.167,4.242,0
						c0.391,0.39,0.391,1.023,0.001,1.414C4.937,9.134,4.303,9.133,3.912,8.743c-0.389-0.39-1.025-0.39-1.414,0
						c-0.39,0.39-0.39,1.024,0,1.415c0.391,0.391,0.391,1.023,0,1.414C2.303,11.767,2.047,11.865,1.791,11.865z"/>
				</g>
				<g>
					<path d="M1.791,16.107c-0.256,0-0.512-0.098-0.707-0.293c-0.566-0.566-0.879-1.32-0.879-2.122s0.313-1.555,0.879-2.121
						c0.391-0.39,1.024-0.391,1.415,0.001c0.39,0.391,0.39,1.024-0.001,1.414c-0.189,0.188-0.293,0.439-0.293,0.706
						c0,0.267,0.104,0.519,0.293,0.708c0.391,0.391,0.391,1.023,0,1.414C2.303,16.009,2.047,16.107,1.791,16.107z"/>
				</g>
				<g>
					<path d="M8.568,22.885c-0.256,0-0.512-0.098-0.707-0.293l-6.777-6.778c-0.391-0.391-0.391-1.024,0-1.414
						c0.391-0.391,1.023-0.391,1.414,0l6.777,6.778c0.391,0.391,0.391,1.024,0,1.414C9.08,22.788,8.824,22.885,8.568,22.885z"/>
				</g>
				<g>
					<path d="M1.791,13.279c-0.256,0-0.512-0.098-0.707-0.293c-0.391-0.39-0.391-1.023,0-1.414l3.535-3.536
						c0.391-0.391,1.023-0.391,1.414,0c0.391,0.39,0.391,1.023,0,1.414l-3.535,3.536C2.303,13.181,2.047,13.279,1.791,13.279z"/>
				</g>
			</g>
			<g>
				<path d="M62.795,64H19.79c-0.553,0-1-0.447-1-1V28.861c0-0.552,0.447-1,1-1s1,0.448,1,1V62h41.005V7.414L56.381,2H20.79v21.207
					c0,0.552-0.447,1-1,1s-1-0.448-1-1V1c0-0.552,0.447-1,1-1h37.005c0.266,0,0.52,0.105,0.707,0.293l6,6
					C63.689,6.48,63.795,6.734,63.795,7v56C63.795,63.553,63.348,64,62.795,64z"/>
			</g>
			<g>
				<path d="M56.795,8c-0.553,0-1-0.448-1-1V1c0-0.552,0.447-1,1-1s1,0.448,1,1v6C57.795,7.552,57.348,8,56.795,8z"/>
			</g>
			<g>
				<path d="M62.795,8h-6c-0.553,0-1-0.448-1-1s0.447-1,1-1h6c0.553,0,1,0.448,1,1S63.348,8,62.795,8z"/>
			</g>
			<g>
				<path d="M31.784,20.018h-4c-0.553,0-1-0.448-1-1v-4c0-0.552,0.447-1,1-1h4c0.553,0,1,0.448,1,1v4
					C32.784,19.57,32.337,20.018,31.784,20.018z M28.784,18.018h2v-2h-2V18.018z"/>
			</g>
			<g>
				<path d="M54.787,18.018H35.784c-0.553,0-1-0.448-1-1s0.447-1,1-1h19.003c0.553,0,1,0.448,1,1S55.34,18.018,54.787,18.018z"/>
			</g>
			<g>
				<path d="M31.784,28.018h-4c-0.553,0-1-0.448-1-1v-4c0-0.552,0.447-1,1-1h4c0.553,0,1,0.448,1,1v4
					C32.784,27.57,32.337,28.018,31.784,28.018z M28.784,26.018h2v-2h-2V26.018z"/>
			</g>
			<g>
				<path d="M54.787,26.018H35.784c-0.553,0-1-0.448-1-1s0.447-1,1-1h19.003c0.553,0,1,0.448,1,1S55.34,26.018,54.787,26.018z"/>
			</g>
			<g>
				<path d="M54.787,34.018H35.784c-0.553,0-1-0.447-1-1c0-0.552,0.447-1,1-1h19.003c0.553,0,1,0.448,1,1
					C55.787,33.57,55.34,34.018,54.787,34.018z"/>
			</g>
			<g>
				<path d="M31.784,44.02h-4c-0.553,0-1-0.447-1-1v-4c0-0.553,0.447-1,1-1h4c0.553,0,1,0.447,1,1v4
					C32.784,43.572,32.337,44.02,31.784,44.02z M28.784,42.02h2v-2h-2V42.02z"/>
			</g>
			<g>
				<path d="M54.787,42.02H35.784c-0.553,0-1-0.447-1-1s0.447-1,1-1h19.003c0.553,0,1,0.447,1,1S55.34,42.02,54.787,42.02z"/>
			</g>
			<g>
				<g>
					<path d="M28.781,36.016c-0.256,0-0.512-0.098-0.707-0.293l-0.998-0.998c-0.391-0.391-0.391-1.023,0-1.414s1.023-0.391,1.414,0
						l0.998,0.998c0.391,0.391,0.391,1.023,0,1.414C29.293,35.918,29.037,36.016,28.781,36.016z"/>
				</g>
				<g>
					<path d="M28.781,36.016c-0.256,0-0.512-0.098-0.707-0.293c-0.391-0.391-0.391-1.023,0-1.414l2.997-2.999
						c0.391-0.391,1.023-0.39,1.414,0c0.391,0.391,0.391,1.024,0,1.415l-2.997,2.999C29.293,35.918,29.037,36.016,28.781,36.016z"/>
				</g>
			</g>
		</g>
		<g>
			<path d="M43.769,54.002H27.779c-0.553,0-1-0.447-1-1s0.447-1,1-1h15.989c0.553,0,1,0.447,1,1S44.321,54.002,43.769,54.002z"/>
		</g>
		<g>
			<path d="M36.762,57.006h-8.982c-0.553,0-1-0.447-1-1s0.447-1,1-1h8.982c0.553,0,1,0.447,1,1S37.314,57.006,36.762,57.006z"/>
		</g>
		<g>
			<path d="M53.634,58c-0.159,0-0.319-0.038-0.465-0.115l-1.39-0.729l-1.39,0.729c-0.334,0.178-0.745,0.148-1.053-0.076
				c-0.308-0.224-0.462-0.603-0.397-0.978l0.266-1.546l-1.123-1.094c-0.273-0.266-0.371-0.663-0.254-1.025s0.43-0.626,0.807-0.681
				l1.553-0.228l0.695-1.406c0.338-0.682,1.455-0.682,1.793,0l0.695,1.406l1.553,0.228c0.377,0.055,0.689,0.318,0.807,0.681
				s0.02,0.76-0.254,1.025l-1.123,1.094l0.232,1.353c0.044,0.112,0.067,0.234,0.067,0.362c0,0.553-0.447,1-1,1
				C53.648,58.001,53.641,58.001,53.634,58z M51.779,55.025c0.16,0,0.319,0.038,0.465,0.115l0.062,0.031l-0.012-0.067
				c-0.056-0.324,0.052-0.655,0.288-0.886l0.049-0.048l-0.068-0.01c-0.325-0.047-0.606-0.252-0.752-0.546l-0.031-0.063l-0.031,0.063
				c-0.146,0.294-0.427,0.499-0.752,0.546l-0.068,0.01l0.049,0.048c0.236,0.23,0.344,0.562,0.288,0.886l-0.012,0.067l0.062-0.031
				C51.46,55.063,51.619,55.025,51.779,55.025z"/>
		</g>
	</g>
</g>
<g id="_x37__ballot_x2C__box_x2C__shield_x2C__protection_x2C__vote_x2C__politics_x2C__voting">
</g>
<g id="_x36__ballot_x2C__box_x2C__voting_x2C__vote_x2C__politics_x2C__voting">
</g>
<g id="_x35__ballot_x2C__box_x2C__voting_x2C__politics_x2C__politician">
</g>
<g id="_x34__monitoring_x2C__chart_x2C__candidate_x2C__rating_x2C__vote_x2C__politics_x2C__voting">
</g>
<g id="_x33__pie_x2C__chart_x2C__candidate_x2C__rating_x2C__vote_x2C__politics_x2C__voting">
</g>
<g id="_x32__chart_x2C__candidate_x2C__rating_x2C__race_x2C__vote_x2C__politics_x2C__voting">
</g>
<g id="_x31__pulpit_x2C__flag_x2C__microphone_x2C__speech_x2C__vote_x2C__politics_x2C__voting">
</g>
</svg>
